<?xml version="1.0" standalone="no"?><!DOCTYPE svg PUBLIC "-//W3C//DTD SVG 1.1//EN" "http://www.w3.org/Graphics/SVG/1.1/DTD/svg11.dtd"><svg t="1745494772575" class="icon" viewBox="0 0 1137 1024" version="1.1" xmlns="http://www.w3.org/2000/svg" p-id="5675" width="284.25" height="256" data-spm-anchor-id="a313x.search_index.0.i9.7e463a81JWjd60" xmlns:xlink="http://www.w3.org/1999/xlink"><path d="M568.888889 0c314.197333 0 568.888889 229.262222 568.888889 512 0 132.437333-55.864889 253.155556-147.569778 344.064l72.533333 134.371556a22.755556 22.755556 0 0 1-20.024889 33.564444H568.888889C254.691556 1024 0 794.737778 0 512s254.691556-512 568.888889-512zM336.213333 318.577778H263.395556L113.777778 709.802667h68.494222l35.612444-98.076445h163.84l35.612445 98.076445H485.831111L336.213333 318.577778z m251.505778 0H524.174222v391.224889h225.28v-54.784H587.662222V318.577778z m274.602667 0H798.72v391.224889H1024v-54.784h-161.678222V318.577778zM301.169778 387.640889l61.383111 171.463111H237.056l61.952-171.463111h2.161778z" fill="#1296db" p-id="5676" data-spm-anchor-id="a313x.search_index.0.i8.7e463a81JWjd60" class=""></path></svg>